<svg xmlns="http://www.w3.org/2000/svg" xmlns:svg="http://www.w3.org/2000/svg" id="svg8" width="34" height="34" version="1.1" viewBox="0 0 34 34"><metadata id="metadata5"/><path style="opacity:1;vector-effect:none;fill:#000;fill-opacity:1;stroke:none;stroke-width:3;stroke-linecap:round;stroke-linejoin:round;stroke-miterlimit:4;stroke-dasharray:none;stroke-dashoffset:0;stroke-opacity:1;paint-order:stroke markers fill" id="path831" d="M 17,1 C 8.163444,1 1,8.163444 1,17 1,25.836556 8.163444,33 17,33 25.836556,33 33,25.836556 33,17 33,8.163444 25.836556,1 17,1 Z m 0,1 C 25.284271,2 32,8.7157288 32,17 32,25.284271 25.284271,32 17,32 8.7157288,32 2,25.284271 2,17 2,8.7157288 8.7157288,2 17,2 Z m -4,9 v 12 h 1 V 11 Z m 7,0 v 12 h 1 V 11 Z"/></svg>